<svg width="13" height="12" viewBox="0 0 13 12" fill="none" xmlns="http://www.w3.org/2000/svg">
<path d="M12.3438 2.14425C12.2641 2.46311 12.1843 2.78197 12.1046 3.10083C11.9379 3.78204 11.793 4.47049 11.5973 5.14445C11.4016 5.80392 10.9161 6.16626 10.2421 6.23873C8.9593 6.38367 7.66929 6.51411 6.38652 6.64456C5.73427 6.70978 5.08926 6.78225 4.43701 6.84022C4.27757 6.85471 4.21959 6.92718 4.16886 7.05763C4.01667 7.42722 4.11813 7.8113 4.42976 8.02871C4.57471 8.13016 4.74139 8.15191 4.90808 8.15191C6.68366 8.15191 8.46649 8.15191 10.2421 8.15191C10.3073 8.15191 10.3725 8.15915 10.4305 8.1664C10.561 8.18814 10.6479 8.29684 10.6479 8.42729C10.6552 8.55773 10.5682 8.67368 10.445 8.70267C10.3943 8.71716 10.3363 8.71716 10.2783 8.71716C8.48098 8.71716 6.68366 8.71716 4.87909 8.71716C3.86447 8.71716 3.21947 7.73883 3.63256 6.80399C3.71228 6.62281 3.71953 6.47063 3.66155 6.28221C3.08177 4.57195 2.51648 2.85444 1.95119 1.13693C1.82074 0.7456 1.57434 0.564429 1.16124 0.564429C0.885845 0.564429 0.610448 0.564429 0.327805 0.564429C0.0886447 0.557182 -0.0490526 0.39775 0.0161729 0.194838C0.0524092 0.086135 0.124882 0.00641937 0.226343 0.00641937C0.66118 0.00641937 1.09602 -0.0225681 1.5236 0.0426537C2.00917 0.115122 2.32081 0.448479 2.48025 0.912278C2.55272 1.12244 2.62519 1.3326 2.68317 1.54276C2.71216 1.63697 2.75564 1.6732 2.8571 1.6732C4.35729 1.68769 5.85747 1.71668 7.3649 1.73118C8.90133 1.75292 10.4305 1.77466 11.9669 1.7964C12.1264 1.7964 12.2496 1.86162 12.3365 1.99931C12.3438 2.05004 12.3438 2.10077 12.3438 2.14425ZM11.6988 2.37615C8.77088 2.33267 5.85747 2.28918 2.93682 2.2457C2.94407 2.28194 2.94407 2.30368 2.95132 2.31817C3.37891 3.60811 3.80649 4.89806 4.22684 6.188C4.24858 6.26047 4.28482 6.27496 4.35729 6.26772C4.81387 6.21699 5.27769 6.17351 5.73427 6.12278C7.21271 5.9706 8.69116 5.81841 10.1624 5.66623C10.6697 5.6155 10.9668 5.35461 11.09 4.85458C11.1987 4.39802 11.3147 3.94147 11.4234 3.48492C11.5176 3.12257 11.6046 2.76023 11.6988 2.37615Z" fill="white"/>
<path d="M3.94426 12.0001C3.23403 12.0001 2.6615 11.4203 2.6615 10.7101C2.6615 9.99994 3.24853 9.42019 3.95151 9.42744C4.6545 9.42744 5.24153 10.0217 5.23428 10.7174C5.22703 11.4276 4.64725 12.0001 3.94426 12.0001ZM3.23403 10.7174C3.23403 11.1087 3.55291 11.4276 3.94426 11.4276C4.33562 11.4276 4.6545 11.1087 4.66174 10.7174C4.66174 10.326 4.33562 9.99269 3.94426 9.99994C3.54566 10.0072 3.23403 10.326 3.23403 10.7174Z" fill="white"/>
<path d="M8.09692 10.7173C8.09692 10.0071 8.6767 9.42737 9.38694 9.42737C10.0972 9.42737 10.6697 10.0144 10.6697 10.7173C10.6697 11.4275 10.0972 12 9.37969 12C8.66946 12 8.09692 11.4275 8.09692 10.7173ZM9.38694 11.4275C9.77829 11.4275 10.0972 11.1086 10.0972 10.7173C10.0972 10.3332 9.77104 10.0071 9.38694 9.99987C8.99558 9.99987 8.66221 10.3332 8.66946 10.7173C8.6767 11.1159 8.99558 11.4275 9.38694 11.4275Z" fill="white"/>
</svg>
