<svg width="13" height="12" viewBox="0 0 13 12" fill="none" xmlns="http://www.w3.org/2000/svg">
<path d="M10.3577 9.59745C10.643 9.88937 10.9217 10.1746 11.2003 10.4599C11.2468 10.5064 11.2932 10.5528 11.333 10.5992C11.4458 10.7585 11.3529 10.9708 11.1605 10.9973C11.1273 11.0039 11.0875 10.9973 11.0544 10.9973C9.90656 10.9973 8.75212 10.9973 7.60431 10.9973C7.34556 10.9973 7.26594 10.9243 7.26594 10.6589C7.26594 9.4714 7.26594 8.28386 7.26594 7.10295C7.26594 7.02334 7.29248 6.92382 7.34556 6.86411C7.44508 6.73805 7.59768 6.75132 7.72374 6.87737C8.0024 7.16265 8.28105 7.44794 8.55971 7.73321C8.58625 7.75975 8.61279 7.78629 8.6526 7.81946C8.87818 7.56072 9.05732 7.28872 9.20991 6.99017C10.1056 5.26524 9.76723 3.12233 8.37394 1.76893C7.63749 1.05242 6.7418 0.687536 5.72006 0.614558C5.65371 0.607924 5.58073 0.594658 5.52765 0.568121C5.42813 0.515046 5.39496 0.428797 5.42149 0.316013C5.44803 0.209863 5.49448 0.12362 5.6139 0.103717C8.71894 -0.506643 11.3264 1.66278 11.897 4.35632C12.1955 5.78271 11.9567 7.12948 11.2136 8.37674C10.9814 8.76153 10.7027 9.11979 10.444 9.49131C10.4042 9.52449 10.3843 9.55765 10.3577 9.59745Z" fill="white"/>
<path d="M1.67284 2.40583C1.63303 2.37929 1.59322 2.36601 1.56005 2.33284C1.28139 2.06083 1.00937 1.78219 0.730711 1.50355C0.637825 1.41067 0.598017 1.29789 0.64446 1.17847C0.690903 1.05905 0.797058 1.02588 0.923118 1.02588C2.1041 1.02588 3.27844 1.02588 4.45942 1.02588C4.65182 1.02588 4.75798 1.1254 4.75798 1.3178C4.75798 2.52525 4.75798 3.73933 4.75798 4.94678C4.75798 5.07284 4.71154 5.17234 4.58548 5.21878C4.45942 5.27186 4.37317 5.21216 4.28691 5.13255C3.97508 4.834 3.65662 4.54208 3.33152 4.24354C3.24527 4.36295 3.11921 4.52882 3.00642 4.70132C1.89179 6.45942 2.15717 8.7748 3.63671 10.2344C4.37317 10.9641 5.28212 11.329 6.3105 11.402C6.36358 11.4086 6.41666 11.4086 6.4631 11.4285C6.56262 11.4617 6.62897 11.528 6.6157 11.6408C6.60906 11.7602 6.52281 11.8664 6.42329 11.8863C5.44135 12.0853 4.47269 12.0323 3.53719 11.6541C1.71265 10.9177 0.584748 9.56429 0.140222 7.6536C-0.211417 6.1277 0.113683 4.70794 0.943022 3.39434C1.13543 3.08916 1.36764 2.81716 1.57995 2.52525C1.60649 2.50534 1.63303 2.47217 1.67284 2.40583Z" fill="white"/>
</svg>
