<svg width="14" height="12" viewBox="0 0 14 12" fill="none" xmlns="http://www.w3.org/2000/svg">
<path d="M13.8779 4.34983C13.8273 4.61193 13.7935 4.88222 13.7345 5.13613C13.5658 5.81595 13.2199 6.42205 12.7897 6.9872C12.1234 7.84721 11.322 8.58436 10.4869 9.28056C9.50845 10.1078 8.52153 10.9351 7.53462 11.7541C7.15503 12.0736 6.75014 12.0817 6.38743 11.7787C5.10528 10.6975 3.8147 9.62457 2.54943 8.51884C1.89992 7.95369 1.30945 7.32302 0.837084 6.61044C-0.0148687 5.32451 -0.251054 3.9485 0.288798 2.50695C0.778038 1.19646 1.73121 0.344639 3.16519 0.07435C4.64978 -0.20413 5.83914 0.311877 6.79232 1.41761C6.8345 1.47494 6.88511 1.53227 6.92728 1.58142C6.93572 1.58961 6.94415 1.58961 6.96102 1.61418C7.01163 1.54866 7.06225 1.48313 7.11286 1.4258C7.66114 0.770549 8.33596 0.295496 9.18791 0.098922C10.6809 -0.245082 12.2667 0.36102 13.1271 1.58961C13.5573 2.19571 13.7851 2.86734 13.8694 3.5963C13.8779 3.64544 13.8863 3.6864 13.8947 3.73554C13.8779 3.9485 13.8779 4.15326 13.8779 4.34983ZM6.93572 11.2054C6.96946 11.1808 7.0032 11.1562 7.0285 11.1316C8.12508 10.2143 9.23009 9.29695 10.3182 8.36322C11.0774 7.71616 11.8028 7.01996 12.368 6.19272C12.9078 5.40642 13.1693 4.54641 13.0428 3.5963C12.9078 2.57248 12.4608 1.72066 11.5245 1.18827C10.6556 0.688644 9.72776 0.63131 8.79989 1.05722C8.25161 1.31113 7.84672 1.72885 7.50931 2.21209C7.4587 2.27762 7.41652 2.35133 7.36591 2.41686C7.1466 2.71172 6.74171 2.71172 6.51396 2.41686C6.31995 2.16295 6.13438 1.89266 5.90663 1.65513C5.1812 0.90979 4.27864 0.623119 3.24954 0.836074C2.1361 1.0736 1.40224 1.75342 1.03109 2.79362C0.6009 3.99764 0.803343 5.12794 1.52033 6.17633C1.95896 6.83158 2.50725 7.40492 3.09771 7.92093C4.08463 8.78094 5.08841 9.61638 6.08377 10.4682C6.36213 10.7303 6.64892 10.9678 6.93572 11.2054Z" fill="white"/>
</svg>
