<svg width="30" height="46" viewBox="0 0 30 46" fill="none" xmlns="http://www.w3.org/2000/svg">
<path d="M18.76 0C19.2496 0.215356 19.7785 0.371977 20.2167 0.663198C21.0442 1.21138 21.4678 2.03855 21.6343 3.01499C21.9158 4.64974 22.2194 6.28204 22.5328 7.9119C22.5622 8.06118 22.7189 8.24472 22.8609 8.30346C25.1035 9.20648 26.3056 10.9587 26.3105 13.3643C26.3105 14.0055 26.3105 14.6467 26.3105 15.3466C26.6459 15.3466 26.9397 15.3368 27.2359 15.349C28.274 15.3931 29.1456 16.1297 29.1921 17.1551C29.2558 18.6185 29.2558 20.0893 29.1921 21.5528C29.1481 22.5659 28.2495 23.3221 27.2286 23.3588C26.9446 23.3686 26.6631 23.3613 26.3129 23.3613C26.3129 23.5448 26.3129 23.7014 26.3129 23.8605C26.3129 26.7947 26.3154 29.729 26.3129 32.6632C26.3105 35.037 25.0864 36.8137 22.8804 37.6898C22.7287 37.751 22.5622 37.9517 22.5303 38.1132C22.2145 39.7284 21.9183 41.346 21.6343 42.966C21.3062 44.848 19.9596 45.9982 18.0451 45.9982C14.7791 46.0006 11.5131 46.0006 8.24705 45.9982C6.39859 45.9982 5.05448 44.8798 4.71907 43.0664C4.41793 41.4341 4.13148 39.7993 3.81565 38.1695C3.78137 37.9908 3.61734 37.7583 3.4582 37.6947C1.27678 36.8259 0.0281553 35.1178 0.0183621 32.7635C-0.00612071 26.2515 -0.00612071 19.7369 0.0183621 13.2248C0.0281553 10.8682 1.26699 9.18935 3.468 8.30101C3.62713 8.23738 3.78137 8 3.8181 7.81891C4.13148 6.20373 4.42282 4.58611 4.71172 2.96604C4.98838 1.41695 5.89669 0.464976 7.41218 0.0709718C7.45135 0.0611829 7.48563 0.0244747 7.52236 0.00244962C11.2682 2.38993e-06 15.0141 0 18.76 0ZM1.47999 22.9771C1.48244 22.9771 1.48488 22.9771 1.48488 22.9771C1.48488 26.3151 1.4604 29.6531 1.49468 32.9911C1.51426 34.9342 3.12279 36.4784 5.05204 36.4809C10.4579 36.4858 15.8661 36.4833 21.2719 36.4809C21.4947 36.4809 21.7224 36.4711 21.9403 36.4246C23.7153 36.0379 24.8538 34.5843 24.8562 32.6779C24.8562 27.3184 24.8464 21.9615 24.8415 16.602C24.8415 15.4641 24.8709 14.3261 24.8513 13.1906C24.8195 11.0639 23.2526 9.52218 21.1348 9.52218C15.8025 9.51973 10.4701 9.51973 5.14017 9.52462C4.888 9.52462 4.62848 9.52707 4.3812 9.58091C2.63557 9.95289 1.48733 11.3919 1.47999 13.2371C1.47264 16.4797 1.47999 19.7296 1.47999 22.9771ZM21.0222 7.98532C21.0002 7.81646 20.9879 7.67207 20.961 7.53013C20.7088 6.13276 20.4444 4.73784 20.1996 3.34047C19.9817 2.09238 19.2447 1.45611 17.9863 1.45611C14.9627 1.45611 11.9366 1.50015 8.91298 1.43897C7.16001 1.40226 6.26638 1.93086 6.0191 3.82992C5.83793 5.21505 5.53435 6.5855 5.28218 7.98532C10.5435 7.98532 15.7633 7.98532 21.0222 7.98532ZM5.28218 38.0202C5.58821 39.7137 5.87466 41.3778 6.19538 43.0346C6.35942 43.8838 7.18939 44.5396 8.08791 44.5421C11.4714 44.5519 14.855 44.5543 18.2385 44.5421C19.1615 44.5396 19.9278 43.8911 20.131 42.9856C20.2485 42.4619 20.3342 41.9284 20.4322 41.3998C20.6354 40.2839 20.8337 39.1679 21.0393 38.0202C15.7804 38.0202 10.5607 38.0202 5.28218 38.0202ZM26.3521 16.8321C26.3521 18.5378 26.3521 20.2141 26.3521 21.9125C26.5382 21.9125 26.6875 21.9125 26.8369 21.9125C27.5885 21.9125 27.7672 21.7388 27.7672 20.9997C27.7697 20.0135 27.7672 19.0272 27.7672 18.0434C27.7672 16.8419 27.6644 16.7464 26.4598 16.8076C26.4305 16.8051 26.4011 16.8174 26.3521 16.8321Z" fill="white"/>
<path d="M4.00914 16.5286C3.779 16.3426 3.48765 16.2202 3.41176 16.0147C3.32852 15.792 3.38483 15.4616 3.49745 15.2389C3.61986 14.9966 3.87693 14.8229 4.07769 14.6222C5.19901 13.5014 6.32032 12.383 7.43919 11.2597C7.73543 10.9611 8.0635 10.8437 8.44299 11.0786C8.86654 11.3404 8.89592 11.8593 8.4944 12.268C7.71829 13.0584 6.93239 13.8342 6.14894 14.6173C5.65194 15.1141 5.16228 15.6182 4.65304 16.1028C4.48656 16.2594 4.26866 16.3597 4.00914 16.5286Z" fill="white"/>
<path d="M5.95042 11.6147C5.79373 11.8863 5.71784 12.1041 5.57339 12.2558C5.01763 12.8383 4.44473 13.406 3.86693 13.9665C3.51928 14.3042 3.08837 14.314 2.79213 14.0203C2.48854 13.7193 2.49344 13.2984 2.83376 12.9484C3.40666 12.3586 3.96976 11.759 4.58673 11.2207C4.7728 11.0567 5.14493 10.9759 5.38487 11.0396C5.59787 11.0934 5.74721 11.3969 5.95042 11.6147Z" fill="white"/>
</svg>
