<svg width="29" height="20" viewBox="0 0 29 20" fill="none" xmlns="http://www.w3.org/2000/svg">
<path d="M27.6963 1.22025C27.1299 0.330916 26.2648 0 25.235 0C17.7792 0.0103411 10.3233 0 2.86745 0C2.69238 0 2.51732 0.0103411 2.34225 0.0206823C1.05498 0.134435 0.00457695 1.24094 0.00457695 2.51289C-0.00572119 7.49732 0.00457695 12.4921 0.00457695 17.4765C0.00457695 18.0039 0.16934 18.4899 0.49888 18.9139C1.10647 19.7102 1.92003 20.0101 2.89835 19.9997C10.3336 19.9894 17.7689 19.9997 25.2144 19.9997C25.3895 19.9997 25.5646 19.9997 25.7396 19.9791C26.8209 19.8343 27.583 19.2759 27.9846 18.2418C28.0464 18.0866 28.0773 17.9315 28.1288 17.7661C28.1288 12.5852 28.1288 7.40425 28.1288 2.22334C27.9743 1.89243 27.8816 1.52015 27.6963 1.22025ZM2.15688 1.13752C2.38344 1.11684 2.6203 1.07548 2.84686 1.07548C5.70974 1.07548 8.57263 1.07548 11.4355 1.07548C16.0285 1.07548 20.6214 1.07548 25.2144 1.07548C25.4513 1.07548 25.6984 1.1065 25.9353 1.12718C25.9456 1.15821 25.9559 1.17889 25.9559 1.20991C21.9911 4.57078 18.0263 7.93165 14.0409 11.3029C10.0659 7.93165 6.10107 4.57078 2.12599 1.20991C2.14659 1.18923 2.14658 1.15821 2.15688 1.13752ZM1.14767 17.9832C1.11677 17.7661 1.06528 17.5592 1.06528 17.3421C1.06528 12.4611 1.05498 7.56971 1.06528 2.68869C1.06528 2.43017 1.13736 2.17164 1.17855 1.91311C1.20945 1.90277 1.24035 1.89243 1.27124 1.88209C4.09293 4.27089 6.90433 6.64935 9.74661 9.05883C6.90433 12.0474 4.07234 15.0257 1.24035 18.0039C1.20946 18.0039 1.17856 17.9936 1.14767 17.9832ZM26.0795 18.8415C25.8117 18.8726 25.544 18.9346 25.2865 18.9346C23.3608 18.9449 21.4453 18.9346 19.5196 18.9346C13.9689 18.9346 8.40786 18.9346 2.85716 18.9346C2.57911 18.9346 2.30106 18.8726 2.02301 18.8415C2.02301 18.8105 2.02301 18.7795 2.02301 18.7485C4.8653 15.7599 7.70758 12.7713 10.5705 9.76203C10.8176 9.96885 11.0648 10.1757 11.3119 10.3825C12.1049 11.0547 12.8875 11.7268 13.6805 12.399C13.938 12.6265 14.2057 12.6058 14.4941 12.368C15.5033 11.5097 16.5125 10.6514 17.5526 9.76203C20.4155 12.7713 23.2578 15.7599 26.1104 18.7588C26.0898 18.7795 26.0795 18.8105 26.0795 18.8415ZM27.0372 17.3628C27.0372 17.5696 26.9754 17.7867 26.9342 18.0763C24.0404 15.036 21.2187 12.0681 18.3559 9.05883C21.1775 6.65969 23.9992 4.28123 26.8209 1.89243C26.8518 1.90277 26.8827 1.90277 26.9239 1.91311C26.9651 2.1613 27.0372 2.40948 27.0372 2.65767C27.0372 7.55937 27.0372 12.4611 27.0372 17.3628Z" fill="#FF6600"/>
</svg>
