<svg width="14" height="20" viewBox="0 0 14 20" fill="none" xmlns="http://www.w3.org/2000/svg">
<path d="M13.8053 6.23916C13.6546 4.89649 13.1775 3.68619 12.3301 2.63348C11.4199 1.49252 10.2648 0.698262 8.86494 0.288526C7.35836 -0.152729 5.85805 -0.0896916 4.39541 0.490243C2.81977 1.1143 1.61451 2.18592 0.817273 3.68619C-0.0741221 5.36296 -0.22478 7.12797 0.308801 8.94973C0.760776 10.4941 1.47013 11.9313 2.26108 13.3244C3.31569 15.184 4.53979 16.9301 5.83294 18.6321C6.1782 19.086 6.54229 19.5335 6.91266 20C6.96916 19.9307 7.00054 19.8991 7.03193 19.8613C8.71428 17.7244 10.2774 15.5055 11.6207 13.1353C12.3803 11.7927 13.0583 10.4185 13.5102 8.93712C13.7802 8.0483 13.9057 7.15319 13.8053 6.23916ZM6.9001 9.84484C5.26797 9.83223 3.96227 8.50847 3.97482 6.87583C3.9811 5.23058 5.30564 3.91312 6.93777 3.91942C8.56362 3.92572 9.89444 5.2747 9.87561 6.90104C9.86305 8.54629 8.52596 9.86375 6.9001 9.84484Z" fill="#FF6600"/>
</svg>
