<svg width="20" height="20" viewBox="0 0 20 20" fill="none" xmlns="http://www.w3.org/2000/svg">
<path d="M19.1452 14.4531C18.2957 13.6122 17.4664 12.751 16.6088 11.9182C16.017 11.3441 15.3124 11.1541 14.5394 11.4937C14.2375 11.6271 13.9678 11.8495 13.7222 12.0759C13.2713 12.4923 12.8445 12.9411 12.4137 13.3858C12.3372 13.4626 12.2809 13.4828 12.1802 13.4262C11.8944 13.2604 11.5964 13.1149 11.3186 12.937C10.3001 12.2861 9.40226 11.4937 8.58095 10.6083C7.77978 9.74319 7.03899 8.83355 6.52366 7.75816C6.45924 7.62071 6.4834 7.54794 6.58405 7.44687C7.09535 6.94152 7.61874 6.44021 8.09783 5.90656C8.7903 5.13438 8.79433 4.10346 8.08978 3.34341C7.34094 2.53484 6.54379 1.76671 5.77482 0.974318C5.34001 0.525565 4.88105 0.125327 4.24494 0C4.07585 0 3.90675 0 3.73766 0C3.25454 0.10107 2.83583 0.323425 2.48557 0.667065C1.96219 1.1805 1.44686 1.70203 0.931531 2.22759C0.311525 2.86231 0.0216511 3.63449 0.001521 4.51582C-0.0186091 5.42546 0.162563 6.29871 0.456462 7.15579C1.51128 10.2324 3.35922 12.7874 5.65002 15.0393C7.17587 16.5351 8.91108 17.748 10.8194 18.7061C12.1077 19.353 13.4363 19.8664 14.8897 19.9836C15.8157 20.0564 16.6934 19.8987 17.3939 19.26C18.0501 18.6616 18.6661 18.0148 19.27 17.3639C20.0994 16.4745 20.0269 15.3223 19.1452 14.4531Z" fill="#FF6600"/>
</svg>
