<svg width="33" height="25" viewBox="0 0 33 25" fill="none" xmlns="http://www.w3.org/2000/svg">
<g clip-path="url(#clip0_3_91)">
<path d="M32.864 11.8523C32.0595 9.86917 31.2186 7.9028 30.4056 5.92356C30.1419 5.28227 29.7166 4.99382 29.0579 4.99897C27.2145 5.01442 25.3698 5.00412 23.5264 5.00412C23.3441 5.00412 23.1618 5.00412 22.9418 5.00412C23.0658 3.8413 23.1885 2.74286 23.2991 1.64314C23.4097 0.534406 22.9503 0.00257342 21.9004 0.00257342C16.6507 0.00257342 11.4011 0.00257342 6.15262 0.00257342C6.04204 0.00257342 5.93024 -0.00515297 5.82087 0.00772434C5.32385 0.0643845 4.97023 0.332232 4.79646 0.83316C4.50602 1.66761 5.08446 2.49948 5.96791 2.50206C7.89765 2.5085 9.8286 2.50077 11.7583 2.50592C12.4547 2.5085 12.9748 3.04162 12.9833 3.73699C12.9918 4.44911 12.468 4.99253 11.7547 5.00412C11.3367 5.01056 10.9186 5.00541 10.5006 5.00541C8.1893 5.00541 5.87798 5.00154 3.56667 5.00798C2.93477 5.00927 2.44261 5.47414 2.3697 6.10255C2.29679 6.72839 2.6893 7.32847 3.28353 7.47012C3.4488 7.51004 3.625 7.5036 3.79634 7.50489C7.59506 7.50618 11.3938 7.50618 15.1925 7.50618C15.9799 7.50618 16.5171 8.00839 16.5231 8.74369C16.5304 9.49572 15.9885 10.0044 15.1791 10.007C14.5521 10.0082 13.925 10.007 13.298 10.007C11.2577 10.007 9.21614 10.0095 7.17582 10.0057C6.67759 10.0044 6.28872 10.2001 6.0469 10.6676C5.61186 11.511 6.18178 12.4974 7.11992 12.5051C8.65715 12.5167 10.1932 12.5103 11.7304 12.5077C12.2809 12.5064 12.6807 12.7653 12.8946 13.2958C13.2348 14.1367 12.6296 15.0072 11.7073 15.0085C8.62191 15.0124 5.5353 15.0085 2.4499 15.0111C1.70377 15.0124 1.17516 15.5455 1.18245 16.2731C1.18974 16.9813 1.71714 17.5041 2.44018 17.5093C3.18996 17.5144 3.93974 17.5041 4.68952 17.5131C5.37975 17.5209 5.89864 18.063 5.89986 18.7584C5.90107 19.4537 5.3834 19.9959 4.69438 20.01C4.2885 20.0191 3.88262 19.9946 3.47796 20.0178C2.61395 20.0667 2.09263 21.0415 2.50216 21.8412C2.74034 22.3074 3.12677 22.516 3.62622 22.5147C4.71868 22.5108 5.81115 22.5134 6.89025 22.5134C7.26331 23.6067 7.70808 24.2093 8.42626 24.6163C10.0631 25.5447 12.2043 24.7334 13.089 22.8315C13.2044 22.5829 13.3308 22.5057 13.5836 22.507C16.3494 22.516 19.1152 22.5134 21.8822 22.5134C22.0037 22.5134 22.124 22.5134 22.2358 22.5134C22.2771 22.6319 22.3063 22.7169 22.3355 22.8018C22.8847 24.3961 24.2701 25.255 25.8364 24.9343C27.0358 24.6884 27.9096 23.9569 28.4479 22.798C28.5524 22.5739 28.6618 22.5005 28.8878 22.507C29.4529 22.5237 30.0192 22.5121 30.5842 22.5121C31.684 22.5121 32.0498 22.1348 32.164 20.9849C32.4326 18.2665 32.7278 15.5506 32.9915 12.8309C33.0207 12.5103 32.9818 12.1459 32.864 11.8523ZM10.2102 22.4271C9.68399 22.6332 9.25381 22.3705 9.15295 21.7807C9.01928 20.999 9.58435 20.153 10.3268 20.0242C10.8032 19.9418 11.1836 20.3809 11.169 20.9952C11.1544 21.6455 10.7813 22.2031 10.2102 22.4271ZM25.292 22.5044C24.8461 22.561 24.4876 22.1477 24.4839 21.5708C24.4791 20.8921 24.8679 20.3101 25.4743 20.086C25.9482 19.9109 26.331 20.1182 26.4708 20.6256C26.6932 21.4317 26.0843 22.4026 25.292 22.5044ZM30.6268 13.7555C28.7529 13.7555 27.0103 13.7684 25.2677 13.7491C24.5982 13.7414 24.0951 13.122 24.1607 12.415C24.2786 11.1479 24.4134 9.88204 24.5581 8.61749C24.631 7.9865 25.066 7.5461 25.6724 7.5255C26.5425 7.49588 27.415 7.50876 28.2863 7.52163C28.3774 7.52292 28.5123 7.62336 28.5512 7.71479C29.2499 9.33218 29.9584 10.9457 30.6085 12.5863C30.7374 12.9095 30.6268 13.3396 30.6268 13.7555Z" fill="#FFF067"/>
<path d="M1.7657 12.5052C1.98686 12.5052 2.20924 12.5167 2.4292 12.5026C3.04895 12.4614 3.5326 11.9192 3.53867 11.2702C3.54475 10.6058 3.05259 10.0417 2.41704 10.0121C1.98808 9.99279 1.55668 9.99279 1.12772 10.0121C0.486089 10.0391 -0.00242137 10.5942 9.0289e-06 11.2625C0.00243943 11.927 0.499457 12.4717 1.13865 12.5039C1.34767 12.5155 1.55668 12.5064 1.7657 12.5052Z" fill="#FFF067"/>
</g>
<defs>
<clipPath id="clip0_3_91">
<rect width="33" height="25" fill="white"/>
</clipPath>
</defs>
</svg>
