<svg width="14" height="25" viewBox="0 0 14 25" fill="none" xmlns="http://www.w3.org/2000/svg">
<g clip-path="url(#clip0_3_84)">
<path d="M12.5211 -6.46242e-08C12.9538 0.11376 13.3407 0.298499 13.6292 0.667976C14.1145 1.29025 14.126 2.19256 13.6397 2.81581C13.5452 2.93637 13.441 3.05013 13.334 3.15903C10.3487 6.19847 7.36339 9.23693 4.37615 12.2744C4.30832 12.3435 4.22808 12.3989 4.10484 12.5681C4.18891 12.6157 4.28922 12.6478 4.35513 12.7139C7.37199 15.7786 10.385 18.8472 13.4 21.9139C13.9321 22.4555 14.1375 23.0816 13.9044 23.8264C13.5595 24.9261 12.1676 25.3646 11.2687 24.6597C11.1674 24.58 11.0709 24.4944 10.9802 24.402C7.51815 20.8803 4.05804 17.3586 0.597919 13.835C-0.048822 13.1767 -0.18161 12.358 0.248277 11.6152C0.352406 11.4353 0.497611 11.2759 0.642817 11.1271C4.01122 7.69582 7.38441 4.26746 10.7499 0.832296C11.1225 0.452123 11.5075 0.112788 12.0415 -8.55865e-08C12.2011 -7.8613e-08 12.3615 -7.15977e-08 12.5211 -6.46242e-08Z" fill="black"/>
</g>
<defs>
<clipPath id="clip0_3_84">
<rect width="25" height="14" fill="white" transform="translate(14) rotate(90)"/>
</clipPath>
</defs>
</svg>
