<svg width="14" height="25" viewBox="0 0 14 25" fill="none" xmlns="http://www.w3.org/2000/svg">
<g clip-path="url(#clip0_3_89)">
<path d="M1.47892 -6.46242e-08C1.04616 0.11376 0.659265 0.298499 0.370763 0.667976C-0.114532 1.29025 -0.125996 2.19256 0.360254 2.81581C0.45483 2.93637 0.558958 3.05013 0.665952 3.15903C3.65128 6.19847 6.63661 9.23693 9.62385 12.2744C9.69168 12.3435 9.77192 12.3989 9.89516 12.5681C9.81109 12.6157 9.71078 12.6478 9.64487 12.7139C6.62801 15.7786 3.61498 18.8472 0.600037 21.9139C0.0679318 22.4555 -0.137459 23.0816 0.0956357 23.8264C0.440501 24.9261 1.83238 25.3646 2.73132 24.6597C2.83259 24.58 2.92907 24.4944 3.01983 24.402C6.48185 20.8803 9.94196 17.3586 13.4021 13.835C14.0488 13.1767 14.1816 12.358 13.7517 11.6152C13.6476 11.4353 13.5024 11.2759 13.3572 11.1271C9.98878 7.69582 6.61559 4.26746 3.25005 0.832296C2.87748 0.452123 2.4925 0.112788 1.95848 -8.55865e-08C1.79894 -7.8613e-08 1.63845 -7.15977e-08 1.47892 -6.46242e-08Z" fill="black"/>
</g>
<defs>
<clipPath id="clip0_3_89">
<rect width="25" height="14" fill="white" transform="matrix(4.37114e-08 1 1 -4.37114e-08 0 0)"/>
</clipPath>
</defs>
</svg>
