<svg width="32" height="32" viewBox="0 0 32 32" fill="none" xmlns="http://www.w3.org/2000/svg">
<g clip-path="url(#clip0_3_122)">
<path d="M30.7518 32C30.5068 31.8297 30.2325 31.6903 30.0242 31.4849C27.3986 28.9138 24.7818 26.3325 22.1621 23.7542C22.0961 23.6896 22.0272 23.628 21.9465 23.5531C21.8556 23.6147 21.769 23.6676 21.6883 23.7292C19.9516 25.0529 18.0066 25.9158 15.8607 26.2826C12.6528 26.83 9.60033 26.3516 6.76645 24.7168C3.82842 23.0233 1.73235 20.5932 0.698243 17.3515C-0.660026 13.0929 -0.0366305 9.09397 2.61097 5.48102C4.81265 2.47708 7.81375 0.701422 11.494 0.156984C14.6667 -0.312611 17.6678 0.261176 20.4283 1.93264C23.5849 3.84478 25.703 6.57137 26.5479 10.1726C27.5673 14.5163 26.5538 18.414 23.6935 21.8332C23.6333 21.9051 23.5717 21.9756 23.5116 22.0475C23.4984 22.0636 23.4896 22.0827 23.4588 22.1341C23.5189 22.1986 23.5864 22.272 23.6568 22.341C26.2531 24.8988 28.8523 27.4522 31.4426 30.0159C31.6583 30.2302 31.8167 30.5031 32.0015 30.7482C32.0015 30.8935 32.0015 31.0402 32.0015 31.1855C31.8651 31.5905 31.5864 31.8532 31.1889 31.9985C31.0437 32 30.897 32 30.7518 32ZM2.08732 13.1853C2.11225 13.6491 2.11078 14.0365 2.15626 14.418C2.44522 16.835 3.36344 18.9775 5.04148 20.7502C7.97804 23.8525 11.6069 25.0191 15.7639 24.2105C19.4089 23.5018 22.1328 21.4032 23.7477 18.028C25.3759 14.6264 25.2762 11.1881 23.4544 7.90091C21.5871 4.53156 18.6403 2.61209 14.8178 2.14103C11.8006 1.76975 9.02534 2.50349 6.5919 4.34812C3.65094 6.5787 2.18706 9.58265 2.08732 13.1853Z" fill="white"/>
</g>
<defs>
<clipPath id="clip0_3_122">
<rect width="32" height="32" fill="white"/>
</clipPath>
</defs>
</svg>
