<svg width="33" height="33" viewBox="0 0 33 33" fill="none" xmlns="http://www.w3.org/2000/svg">
<path d="M0.00176244 17.3314C0.0845165 16.6428 0.142623 15.9482 0.25707 15.2655C1.19025 9.69333 3.85775 5.45698 8.17504 2.54461C10.9394 0.679982 13.9731 -0.152687 17.1935 0.0229237C21.8488 0.27746 25.7541 2.37689 28.8618 6.26597C31.2018 9.19215 32.5329 12.6452 32.9097 16.554C32.9678 17.1637 32.9907 17.7793 32.9925 18.391C33.0013 21.2422 33.003 24.0953 32.9942 26.9465C32.9907 28.3475 32.4378 29.3932 31.3074 30.0207C30.6278 30.3976 29.8936 30.3423 29.147 30.3187C29.147 26.7177 29.147 23.1364 29.147 19.4663C29.7756 19.5117 30.4077 19.5591 31.068 19.6084C31.23 13.4305 29.2034 8.35553 24.5304 4.92817C19.5018 1.24036 14.209 1.14367 9.01315 4.52368C4.20109 7.65506 1.61635 13.4305 1.94912 19.6104C2.57066 19.561 3.19396 19.5097 3.84366 19.4584C3.84366 23.1088 3.84366 26.6999 3.84366 30.3068C2.56714 30.4331 1.37337 30.2693 0.581048 28.9828C0.304614 28.533 0.188397 27.9588 0 27.4438C0.00176072 24.0717 0.00176244 20.7015 0.00176244 17.3314Z" fill="white"/>
<path d="M9.66809 24.9182C9.66809 27.0097 9.66809 29.1032 9.66809 31.1948C9.66809 32.0906 9.30714 32.4951 8.51129 32.497C8.25423 32.497 7.9954 32.5049 7.73833 32.4951C6.63612 32.4536 5.81562 31.5716 5.80857 30.3404C5.79273 26.7216 5.79097 23.1009 5.80857 19.4821C5.81386 18.2647 6.62732 17.3867 7.71193 17.3373C7.96899 17.3255 8.22605 17.3334 8.48488 17.3334C9.3089 17.3354 9.66633 17.73 9.66633 18.6436C9.66809 20.7331 9.66809 22.8266 9.66809 24.9182Z" fill="white"/>
<path d="M23.3296 24.9182C23.3296 22.8267 23.3296 20.7331 23.3296 18.6416C23.3296 17.728 23.6871 17.3334 24.5111 17.3314C24.7682 17.3314 25.027 17.3235 25.2841 17.3354C26.3687 17.3847 27.1557 18.2647 27.1909 19.4802C27.2085 20.0682 27.1962 20.6582 27.1962 21.2481C27.1962 24.194 27.1962 27.14 27.1962 30.0859C27.1962 31.619 26.4091 32.4951 25.034 32.4971C24.8192 32.4971 24.6044 32.499 24.3896 32.4971C23.7205 32.4872 23.3314 32.057 23.3296 31.3053C23.3279 29.1763 23.3296 27.0472 23.3296 24.9182Z" fill="white"/>
</svg>
