<svg width="28" height="46" viewBox="0 0 28 46" fill="none" xmlns="http://www.w3.org/2000/svg">
<path d="M2.97648 45.9983C2.27479 45.8006 1.59586 45.5657 1.06216 45.0519C0.332473 44.3472 0.0017539 43.487 0.0017539 42.5001C4.0621e-06 41.2276 0.0017539 39.9551 0.0017539 38.6826C0.0017539 27.0051 0.00350374 15.3277 4.06205e-06 3.65024C-0.00174578 2.17831 0.561702 1.01225 1.97207 0.366696C2.45853 0.143625 3.04297 0.0202599 3.58192 0.01857C10.1858 -0.0050891 16.7914 -0.00339916 23.3971 0.00843037C25.5389 0.0118102 26.979 1.47698 26.979 3.60799C26.9808 13.9977 26.9808 24.3874 26.9808 34.7771C26.9808 37.1582 26.9283 39.5394 26.9983 41.9171C27.0525 43.7794 26.3963 45.417 24.006 46C16.9944 45.9983 9.98458 45.9983 2.97648 45.9983ZM2.61601 35.3416C9.89359 35.3416 17.1222 35.3416 24.3472 35.3416C24.3472 25.4352 24.3472 15.5626 24.3472 5.68999C17.0872 5.68999 9.85859 5.68999 2.61601 5.68999C2.61601 15.5846 2.61601 25.4453 2.61601 35.3416ZM13.5315 2.0448C11.9829 2.0448 10.4325 2.04311 8.88393 2.0448C8.30648 2.0448 8.09825 2.25773 8.0965 2.83738C8.09475 3.41703 8.31523 3.65531 8.87168 3.65531C11.9549 3.657 15.0381 3.657 18.1213 3.65531C18.6708 3.65531 18.8913 3.40858 18.8843 2.82555C18.879 2.26111 18.6743 2.0448 18.1336 2.04311C16.6007 2.04311 15.0661 2.0448 13.5315 2.0448ZM13.4913 42.6793C14.7074 42.6793 15.7135 41.7059 15.703 40.5398C15.6925 39.3805 14.7144 38.4409 13.5123 38.4308C12.2874 38.4206 11.2847 39.3687 11.276 40.5432C11.2672 41.7075 12.2769 42.681 13.4913 42.6793Z" fill="white"/>
</svg>
